<?xml version="1.0" encoding="UTF-8" standalone="no"?>
<!-- Created with Inkscape (http://www.inkscape.org/) -->

<svg
   xmlns:dc="http://purl.org/dc/elements/1.1/"
   xmlns:cc="http://creativecommons.org/ns#"
   xmlns:rdf="http://www.w3.org/1999/02/22-rdf-syntax-ns#"
   xmlns:svg="http://www.w3.org/2000/svg"
   xmlns="http://www.w3.org/2000/svg"
   xmlns:inkscape="http://www.inkscape.org/namespaces/inkscape"
   version="1.1"
   width="223.32812"
   height="98.447388"
   id="svg2">
  <defs
     id="defs4" />
  <metadata
     id="metadata7">
    <rdf:RDF>
      <cc:Work
         rdf:about="">
        <dc:format>image/svg+xml</dc:format>
        <dc:type
           rdf:resource="http://purl.org/dc/dcmitype/StillImage" />
        <dc:title />
      </cc:Work>
    </rdf:RDF>
  </metadata>
  <g
     transform="translate(-158.39062,-365.74011)"
     id="layer1">
    <path
       d="m 182.594,446.7702 11.156,-75.65802 13.844,75.65802"
       inkscape:connector-curvature="0"
       id="path3197"
       style="fill:none;stroke:#000000;stroke-width:1px;stroke-linecap:butt;stroke-linejoin:miter;stroke-opacity:1" />
    <path
       d="M 232.594,444.2702 225,421.11218 l -25,-12.5"
       inkscape:connector-curvature="0"
       id="path3203"
       style="fill:none;stroke:#000000;stroke-width:1px;stroke-linecap:butt;stroke-linejoin:miter;stroke-opacity:1" />
    <path
       d="m 183.65473,450.7835 0.0171,-0.0683 0.0171,-0.0683 0.0171,-0.0641 0.0171,-0.0598 0.0171,-0.0598 0.0171,-0.0555 0.0213,-0.0513 0.0214,-0.047 0.0214,-0.047 0.0256,-0.047 0.0299,-0.0385 0.0299,-0.0385 0.0342,-0.0385 0.0342,-0.0341 0.0427,-0.0299 0.0427,-0.0299 0.0512,-0.0256 0.0513,-0.0256 0.0598,-0.0213 0.0641,-0.0214 0.0726,-0.0171 0.0341,-0.009 0.0385,-0.009 0.0427,-0.009 0.0427,-0.009 0.0427,-0.004 0.0427,-0.009 0.047,-0.004 0.0513,-0.004 0.0513,-0.009 0.0512,-0.004 0.0555,-0.004 0.0555,0 0.0555,-0.004 0.0598,-0.004 0.0641,-0.004 0.0641,0 0.0683,0 0.0683,-0.004 0.0683,0 0.0726,0 0.0769,0 0.0769,0 c 0.50824,0 0.68335,0 0.68335,-0.41001 0,-0.25199 -0.2349,-0.25199 -0.32032,-0.25199 -0.62356,0 -2.19954,0.0683 -2.81029,0.0683 -0.64064,0 -2.191,-0.0683 -2.83164,-0.0683 -0.14522,0 -0.4271,0 -0.4271,0.4271 0,0.2349 0.19646,0.2349 0.59366,0.2349 0.89691,0 1.46921,0 1.46921,0.40574 0,0.10678 0,0.14522 -0.0384,0.34168 l -2.87008,11.46325 c -0.19647,0.78586 -0.26053,0.9994 -1.94329,0.9994 -0.48689,0 -0.67908,0 -0.67908,0.4271 0,0.2349 0.26053,0.2349 0.32032,0.2349 0.61929,0 2.16965,-0.0683 2.78894,-0.0683 0.64064,0 2.21662,0.0683 2.84873,0.0683 0.1751,0 0.42709,0 0.42709,-0.40574 0,-0.25626 -0.17511,-0.25626 -0.64064,-0.25626 -0.38012,0 -0.48689,0 -0.91399,-0.0385 -0.44845,-0.047 -0.52532,-0.12813 -0.52532,-0.35876 0,-0.17511 0.0384,-0.34168 0.0769,-0.49543 z"
       inkscape:connector-curvature="0"
       id="path3845"
       style="font-style:normal;font-variant:normal;font-weight:normal;font-stretch:normal;letter-spacing:normal;word-spacing:normal;text-anchor:start;fill:#000000;stroke:#000000;stroke-width:0;stroke-linecap:butt;stroke-linejoin:miter;stroke-miterlimit:10.43299961;stroke-opacity:1;stroke-dasharray:none;stroke-dashoffset:0" />
    <path
       d="m 211.34692,450.69808 0.0171,-0.0641 0.0171,-0.0598 0.0128,-0.0598 0.0171,-0.0555 0.0128,-0.0512 0.0171,-0.0513 0.0171,-0.047 0.0171,-0.047 0.0171,-0.0427 0.0171,-0.0385 0.0214,-0.0385 0.0214,-0.0342 0.0256,-0.0342 0.0256,-0.0299 0.0299,-0.0299 0.0342,-0.0256 0.0341,-0.0256 0.0385,-0.0214 0.0384,-0.0214 0.047,-0.0171 0.047,-0.0171 0.0555,-0.0171 0.0555,-0.0128 0.0299,-0.004 0.0342,-0.009 0.0299,-0.004 0.0341,-0.004 0.0342,-0.004 0.0385,-0.004 0.0384,-0.004 0.0385,-0.004 0.0384,-0.004 0.0427,0 0.0427,-0.004 0.047,0 0.0427,-0.004 0.0512,0 0.047,0 0.0512,0 0.0513,0 0.0555,0 c 0.3374,0 0.57231,0 0.57231,-0.41002 0,-0.18365 -0.12813,-0.25198 -0.2947,-0.25198 -0.53387,0 -1.82797,0.0683 -2.36184,0.0683 -0.70044,0 -2.43017,-0.0683 -3.13061,-0.0683 -0.19219,0 -0.44418,0 -0.44418,0.42709 0,0.23491 0.17084,0.23491 0.72606,0.23491 0.48689,0 0.70044,0 1.23004,0.0385 0.51251,0.0683 0.65772,0.1324 0.65772,0.42709 0,0.12813 -0.0385,0.28189 -0.0769,0.44845 l -2.45153,9.76769 c -0.51252,2.06287 -1.9561,3.1904 -3.06228,3.1904 -0.55522,0 -1.68276,-0.21355 -2.02443,-1.31973 0.0641,0.0171 0.21354,0.0171 0.25625,0.0171 0.82857,0 1.37952,-0.71752 1.37952,-1.35816 0,-0.68336 -0.57231,-0.88837 -0.93107,-0.88837 -0.38438,0 -1.43076,0.25199 -1.43076,1.69985 0,1.31545 1.12753,2.31486 2.81029,2.31486 1.96036,0 4.17272,-1.40088 4.70232,-3.50646 z"
       inkscape:connector-curvature="0"
       id="path3847"
       style="font-style:normal;font-variant:normal;font-weight:normal;font-stretch:normal;letter-spacing:normal;word-spacing:normal;text-anchor:start;fill:#000000;stroke:#000000;stroke-width:0;stroke-linecap:butt;stroke-linejoin:miter;stroke-miterlimit:10.43299961;stroke-opacity:1;stroke-dasharray:none;stroke-dashoffset:0" />
    <path
       d="m 235.57845,455.08436 -0.004,-0.009 0,-0.009 -0.004,-0.004 -0.004,-0.009 -0.004,-0.009 0,-0.009 -0.004,-0.0128 -0.004,-0.009 -0.004,-0.009 -0.004,-0.009 -0.004,-0.0128 -0.004,-0.009 -0.009,-0.0214 -0.0128,-0.0256 -0.009,-0.0214 -0.009,-0.0213 -0.004,-0.009 -0.004,-0.0128 0,-0.009 -0.004,-0.009 -0.004,-0.0128 0,-0.009 -0.004,-0.009 -0.004,-0.009 0,-0.009 0,-0.009 0,-0.004 0,-0.009 c 0,-0.0171 0.38011,-0.32032 0.61929,-0.48689 l 3.72427,-2.87435 c 1.99454,-1.46922 2.82738,-1.55036 3.46375,-1.61442 0.17083,-0.0214 0.38438,-0.0427 0.38438,-0.4271 0,-0.0811 -0.0641,-0.2349 -0.23063,-0.2349 -0.47408,0 -1.00367,0.0683 -1.51619,0.0683 -0.76877,0 -1.59307,-0.0683 -2.36184,-0.0683 -0.14948,0 -0.40147,0 -0.40147,0.42709 0,0.14521 0.10678,0.21355 0.25199,0.23491 0.4698,0.0385 0.662,0.1452 0.662,0.44417 0,0.38012 -0.64065,0.87555 -0.76878,0.98232 l -8.29847,6.38081 1.70839,-6.82926 c 0.18365,-0.7645 0.2349,-0.97804 1.78099,-0.97804 0.53387,0 0.72606,0 0.72606,-0.4271 0,-0.18792 -0.17084,-0.2349 -0.29897,-0.2349 -0.59366,0 -2.13121,0.0683 -2.7206,0.0683 -0.61502,0 -2.13121,-0.0683 -2.74622,-0.0683 -0.15376,0 -0.4271,0 -0.4271,0.40574 0,0.25626 0.19647,0.25626 0.61502,0.25626 0.28188,0 0.662,0.0171 0.91398,0.0385 0.34168,0.047 0.47408,0.10677 0.47408,0.34168 0,0.0854 -0.0256,0.15375 -0.0854,0.40574 l -2.853,11.42481 c -0.21355,0.83283 -0.25626,0.9994 -1.93902,0.9994 -0.35875,0 -0.59366,0 -0.59366,0.41001 0,0.25199 0.25199,0.25199 0.32033,0.25199 0.59366,0 2.10558,-0.0683 2.70351,-0.0683 0.44418,0 0.91399,0.0299 1.35816,0.0299 0.46981,0 0.93535,0.0385 1.3838,0.0385 0.15375,0 0.42709,0 0.42709,-0.4271 0,-0.2349 -0.19219,-0.2349 -0.59366,-0.2349 -0.79013,0 -1.38379,0 -1.38379,-0.38011 0,-0.15376 0.12813,-0.61929 0.18792,-0.93961 0.29897,-1.10191 0.57231,-2.22944 0.85419,-3.33562 l 3.16905,-2.46862 2.46861,5.72309 c 0.25626,0.57658 0.25626,0.61502 0.25626,0.74314 0,0.64065 -0.91398,0.65773 -1.11044,0.65773 -0.23064,0 -0.46554,0 -0.46554,0.42709 0,0.23491 0.25199,0.23491 0.29897,0.23491 0.84992,0 1.74255,-0.0683 2.59674,-0.0683 0.4698,0 1.61442,0.0683 2.08422,0.0683 0.10678,0 0.38439,0 0.38439,-0.4271 0,-0.2349 -0.23917,-0.2349 -0.42709,-0.2349 -0.87555,-0.0171 -1.14462,-0.21355 -1.46494,-0.95242 z"
       inkscape:connector-curvature="0"
       id="path3849"
       style="font-style:normal;font-variant:normal;font-weight:normal;font-stretch:normal;letter-spacing:normal;word-spacing:normal;text-anchor:start;fill:#000000;stroke:#000000;stroke-width:0;stroke-linecap:butt;stroke-linejoin:miter;stroke-miterlimit:10.43299961;stroke-opacity:1;stroke-dasharray:none;stroke-dashoffset:0" />
    <path
       d="m 321.65473,450.7835 0.0171,-0.0683 0.0171,-0.0683 0.0171,-0.0641 0.0171,-0.0598 0.0171,-0.0598 0.0171,-0.0555 0.0213,-0.0513 0.0214,-0.047 0.0214,-0.047 0.0256,-0.047 0.0299,-0.0385 0.0299,-0.0385 0.0342,-0.0385 0.0342,-0.0341 0.0427,-0.0299 0.0427,-0.0299 0.0512,-0.0256 0.0513,-0.0256 0.0598,-0.0213 0.0641,-0.0214 0.0726,-0.0171 0.0341,-0.009 0.0385,-0.009 0.0427,-0.009 0.0427,-0.009 0.0427,-0.004 0.0427,-0.009 0.047,-0.004 0.0513,-0.004 0.0513,-0.009 0.0512,-0.004 0.0555,-0.004 0.0555,0 0.0555,-0.004 0.0598,-0.004 0.0641,-0.004 0.0641,0 0.0683,0 0.0683,-0.004 0.0683,0 0.0726,0 0.0769,0 0.0769,0 c 0.50824,0 0.68335,0 0.68335,-0.41001 0,-0.25199 -0.2349,-0.25199 -0.32032,-0.25199 -0.62356,0 -2.19954,0.0683 -2.81029,0.0683 -0.64064,0 -2.191,-0.0683 -2.83164,-0.0683 -0.14522,0 -0.4271,0 -0.4271,0.4271 0,0.2349 0.19646,0.2349 0.59366,0.2349 0.89691,0 1.46921,0 1.46921,0.40574 0,0.10678 0,0.14522 -0.0384,0.34168 l -2.87008,11.46325 c -0.19647,0.78586 -0.26053,0.9994 -1.94329,0.9994 -0.48689,0 -0.67908,0 -0.67908,0.4271 0,0.2349 0.26053,0.2349 0.32032,0.2349 0.61929,0 2.16965,-0.0683 2.78894,-0.0683 0.64064,0 2.21662,0.0683 2.84873,0.0683 0.1751,0 0.42709,0 0.42709,-0.40574 0,-0.25626 -0.17511,-0.25626 -0.64064,-0.25626 -0.38012,0 -0.48689,0 -0.91399,-0.0385 -0.44845,-0.047 -0.52532,-0.12813 -0.52532,-0.35876 0,-0.17511 0.0384,-0.34168 0.0769,-0.49543 z"
       inkscape:connector-curvature="0"
       id="path3889"
       style="font-style:normal;font-variant:normal;font-weight:normal;font-stretch:normal;letter-spacing:normal;word-spacing:normal;text-anchor:start;fill:#000000;stroke:#000000;stroke-width:0;stroke-linecap:butt;stroke-linejoin:miter;stroke-miterlimit:10.43299961;stroke-opacity:1;stroke-dasharray:none;stroke-dashoffset:0" />
    <path
       d="m 349.34692,450.69808 0.0171,-0.0641 0.0171,-0.0598 0.0128,-0.0598 0.0171,-0.0555 0.0128,-0.0512 0.0171,-0.0513 0.0171,-0.047 0.0171,-0.047 0.0171,-0.0427 0.0171,-0.0385 0.0214,-0.0385 0.0214,-0.0342 0.0256,-0.0342 0.0256,-0.0299 0.0299,-0.0299 0.0342,-0.0256 0.0341,-0.0256 0.0385,-0.0214 0.0384,-0.0214 0.047,-0.0171 0.047,-0.0171 0.0555,-0.0171 0.0555,-0.0128 0.0299,-0.004 0.0342,-0.009 0.0299,-0.004 0.0341,-0.004 0.0342,-0.004 0.0385,-0.004 0.0384,-0.004 0.0385,-0.004 0.0384,-0.004 0.0427,0 0.0427,-0.004 0.047,0 0.0427,-0.004 0.0512,0 0.047,0 0.0512,0 0.0513,0 0.0555,0 c 0.3374,0 0.57231,0 0.57231,-0.41002 0,-0.18365 -0.12813,-0.25198 -0.2947,-0.25198 -0.53387,0 -1.82797,0.0683 -2.36184,0.0683 -0.70044,0 -2.43017,-0.0683 -3.13061,-0.0683 -0.19219,0 -0.44418,0 -0.44418,0.42709 0,0.23491 0.17084,0.23491 0.72606,0.23491 0.48689,0 0.70044,0 1.23004,0.0385 0.51251,0.0683 0.65772,0.1324 0.65772,0.42709 0,0.12813 -0.0385,0.28189 -0.0769,0.44845 l -2.45153,9.76769 c -0.51252,2.06287 -1.9561,3.1904 -3.06228,3.1904 -0.55522,0 -1.68276,-0.21355 -2.02443,-1.31973 0.0641,0.0171 0.21354,0.0171 0.25625,0.0171 0.82857,0 1.37952,-0.71752 1.37952,-1.35816 0,-0.68336 -0.57231,-0.88837 -0.93107,-0.88837 -0.38438,0 -1.43076,0.25199 -1.43076,1.69985 0,1.31545 1.12753,2.31486 2.81029,2.31486 1.96036,0 4.17272,-1.40088 4.70232,-3.50646 z"
       inkscape:connector-curvature="0"
       id="path3891"
       style="font-style:normal;font-variant:normal;font-weight:normal;font-stretch:normal;letter-spacing:normal;word-spacing:normal;text-anchor:start;fill:#000000;stroke:#000000;stroke-width:0;stroke-linecap:butt;stroke-linejoin:miter;stroke-miterlimit:10.43299961;stroke-opacity:1;stroke-dasharray:none;stroke-dashoffset:0" />
    <path
       d="m 373.57845,455.08436 -0.004,-0.009 0,-0.009 -0.004,-0.004 -0.004,-0.009 -0.004,-0.009 0,-0.009 -0.004,-0.0128 -0.004,-0.009 -0.004,-0.009 -0.004,-0.009 -0.004,-0.0128 -0.004,-0.009 -0.009,-0.0214 -0.0128,-0.0256 -0.009,-0.0214 -0.009,-0.0213 -0.004,-0.009 -0.004,-0.0128 0,-0.009 -0.004,-0.009 -0.004,-0.0128 0,-0.009 -0.004,-0.009 -0.004,-0.009 0,-0.009 0,-0.009 0,-0.004 0,-0.009 c 0,-0.0171 0.38011,-0.32032 0.61929,-0.48689 l 3.72427,-2.87435 c 1.99454,-1.46922 2.82738,-1.55036 3.46375,-1.61442 0.17083,-0.0214 0.38438,-0.0427 0.38438,-0.4271 0,-0.0811 -0.0641,-0.2349 -0.23063,-0.2349 -0.47408,0 -1.00367,0.0683 -1.51619,0.0683 -0.76877,0 -1.59307,-0.0683 -2.36184,-0.0683 -0.14948,0 -0.40147,0 -0.40147,0.42709 0,0.14521 0.10678,0.21355 0.25199,0.23491 0.4698,0.0385 0.662,0.1452 0.662,0.44417 0,0.38012 -0.64065,0.87555 -0.76878,0.98232 l -8.29847,6.38081 1.70839,-6.82926 c 0.18365,-0.7645 0.2349,-0.97804 1.78099,-0.97804 0.53387,0 0.72606,0 0.72606,-0.4271 0,-0.18792 -0.17084,-0.2349 -0.29897,-0.2349 -0.59366,0 -2.13121,0.0683 -2.7206,0.0683 -0.61502,0 -2.13121,-0.0683 -2.74622,-0.0683 -0.15376,0 -0.4271,0 -0.4271,0.40574 0,0.25626 0.19647,0.25626 0.61502,0.25626 0.28188,0 0.662,0.0171 0.91398,0.0385 0.34168,0.047 0.47408,0.10677 0.47408,0.34168 0,0.0854 -0.0256,0.15375 -0.0854,0.40574 l -2.853,11.42481 c -0.21355,0.83283 -0.25626,0.9994 -1.93902,0.9994 -0.35875,0 -0.59366,0 -0.59366,0.41001 0,0.25199 0.25199,0.25199 0.32033,0.25199 0.59366,0 2.10558,-0.0683 2.70351,-0.0683 0.44418,0 0.91399,0.0299 1.35816,0.0299 0.46981,0 0.93535,0.0385 1.3838,0.0385 0.15375,0 0.42709,0 0.42709,-0.4271 0,-0.2349 -0.19219,-0.2349 -0.59366,-0.2349 -0.79013,0 -1.38379,0 -1.38379,-0.38011 0,-0.15376 0.12813,-0.61929 0.18792,-0.93961 0.29897,-1.10191 0.57231,-2.22944 0.85419,-3.33562 l 3.16905,-2.46862 2.46861,5.72309 c 0.25626,0.57658 0.25626,0.61502 0.25626,0.74314 0,0.64065 -0.91398,0.65773 -1.11044,0.65773 -0.23064,0 -0.46554,0 -0.46554,0.42709 0,0.23491 0.25199,0.23491 0.29897,0.23491 0.84992,0 1.74255,-0.0683 2.59674,-0.0683 0.4698,0 1.61442,0.0683 2.08422,0.0683 0.10678,0 0.38439,0 0.38439,-0.4271 0,-0.2349 -0.23917,-0.2349 -0.42709,-0.2349 -0.87555,-0.0171 -1.14462,-0.21355 -1.46494,-0.95242 z"
       inkscape:connector-curvature="0"
       id="path3893"
       style="font-style:normal;font-variant:normal;font-weight:normal;font-stretch:normal;letter-spacing:normal;word-spacing:normal;text-anchor:start;fill:#000000;stroke:#000000;stroke-width:0;stroke-linecap:butt;stroke-linejoin:miter;stroke-miterlimit:10.43299961;stroke-opacity:1;stroke-dasharray:none;stroke-dashoffset:0" />
    <path
       d="m 295.41039,450.80486 0.0171,-0.0683 0.0171,-0.0683 0.0171,-0.0641 0.0171,-0.0641 0.0171,-0.0555 0.0213,-0.0555 0.0171,-0.0555 0.0256,-0.047 0.0256,-0.0512 0.0256,-0.0427 0.0299,-0.0427 0.0342,-0.0385 0.0385,-0.0385 0.0427,-0.0342 0.047,-0.0342 0.0513,-0.0299 0.0598,-0.0256 0.0641,-0.0256 0.0683,-0.0256 0.0726,-0.0214 0.0427,-0.009 0.0427,-0.009 0.0427,-0.009 0.0427,-0.009 0.0513,-0.009 0.047,-0.009 0.0512,-0.009 0.0555,-0.004 0.0555,-0.004 0.0555,-0.009 0.0598,-0.004 0.0641,-0.004 0.0641,-0.004 0.0641,-0.004 0.0726,-0.004 0.0683,-0.004 0.0769,0 0.0769,-0.004 0.0769,0 0.0811,-0.004 0.0854,0 0.0854,0 0.0897,0 0.094,0 c 0.6321,0 0.80721,0 0.80721,-0.41001 0,-0.25199 -0.2349,-0.25199 -0.34167,-0.25199 -0.70471,0 -2.44726,0.0683 -3.1477,0.0683 -0.64064,0 -2.19527,-0.0683 -2.83164,-0.0683 -0.15376,0 -0.40574,0 -0.40574,0.4271 0,0.2349 0.19219,0.2349 0.59366,0.2349 0.047,0 0.44845,0 0.81575,0.0385 0.38011,0.047 0.57231,0.0683 0.57231,0.34168 0,0.0854 -0.0256,0.15376 -0.0854,0.40574 l -2.853,11.42481 c -0.21355,0.83284 -0.25626,0.99941 -1.93902,0.99941 -0.36303,0 -0.57657,0 -0.57657,0.42709 0,0.23491 0.19646,0.23491 0.57657,0.23491 h 9.85738 c 0.50397,0 0.52532,0 0.65772,-0.35876 l 1.67422,-4.59983 c 0.0897,-0.2349 0.0897,-0.27334 0.0897,-0.29896 0,-0.0811 -0.0598,-0.23491 -0.25626,-0.23491 -0.19219,0 -0.21355,0.10678 -0.35876,0.44845 -0.72606,1.96038 -1.6614,4.38201 -5.34724,4.38201 h -1.99454 c -0.29897,0 -0.3374,0 -0.46553,-0.0171 -0.21355,-0.0214 -0.28188,-0.0427 -0.28188,-0.21354 0,-0.0598 0,-0.10678 0.10677,-0.4869 z"
       inkscape:connector-curvature="0"
       id="path3895"
       style="font-style:normal;font-variant:normal;font-weight:normal;font-stretch:normal;letter-spacing:normal;word-spacing:normal;text-anchor:start;fill:#000000;stroke:#000000;stroke-width:0;stroke-linecap:butt;stroke-linejoin:miter;stroke-miterlimit:10.43299961;stroke-opacity:1;stroke-dasharray:none;stroke-dashoffset:0" />
    <path
       d="m 293.74999,446.11219 18.75,-37.5 21.25001,-37.50001 13.844,75.65802"
       inkscape:connector-curvature="0"
       id="path3897"
       style="fill:none;stroke:#000000;stroke-width:1px;stroke-linecap:butt;stroke-linejoin:miter;stroke-opacity:1" />
    <path
       d="M 372.594,444.2702 365,421.11218 l -25,-12.5"
       inkscape:connector-curvature="0"
       id="path3899"
       style="fill:none;stroke:#000000;stroke-width:1px;stroke-linecap:butt;stroke-linejoin:miter;stroke-opacity:1" />
    <path
       d="m 318.74999,446.11219 -6.25,-37.5"
       inkscape:connector-curvature="0"
       id="path3901"
       style="fill:none;stroke:#000000;stroke-width:1px;stroke-linecap:butt;stroke-linejoin:miter;stroke-opacity:1" />
    <text
       x="278.25"
       y="378.86218"
       id="text3903"
       xml:space="preserve"
       style="font-size:18px;font-style:normal;font-variant:normal;font-weight:normal;font-stretch:normal;text-align:start;line-height:125%;letter-spacing:0px;word-spacing:0px;writing-mode:lr-tb;text-anchor:start;fill:#000000;fill-opacity:1;stroke:none;font-family:Sans;-inkscape-font-specification:Sans"><tspan
         x="278.25"
         y="378.86218"
         id="tspan3905">B</tspan></text>
    <text
       x="158.25"
       y="378.86218"
       id="text3907"
       xml:space="preserve"
       style="font-size:18px;font-style:normal;font-variant:normal;font-weight:normal;font-stretch:normal;text-align:start;line-height:125%;letter-spacing:0px;word-spacing:0px;writing-mode:lr-tb;text-anchor:start;fill:#000000;fill-opacity:1;stroke:none;font-family:Sans;-inkscape-font-specification:Sans"><tspan
         x="158.25"
         y="378.86218"
         id="tspan3909">A</tspan></text>
  </g>
</svg>
