<?xml version="1.0" encoding="UTF-8" standalone="no"?>
<!-- Created with Inkscape (http://www.inkscape.org/) -->

<svg
   xmlns:dc="http://purl.org/dc/elements/1.1/"
   xmlns:cc="http://creativecommons.org/ns#"
   xmlns:rdf="http://www.w3.org/1999/02/22-rdf-syntax-ns#"
   xmlns:svg="http://www.w3.org/2000/svg"
   xmlns="http://www.w3.org/2000/svg"
   xmlns:sodipodi="http://sodipodi.sourceforge.net/DTD/sodipodi-0.dtd"
   xmlns:inkscape="http://www.inkscape.org/namespaces/inkscape"
   version="1.1"
   width="570.89954"
   height="241.6264"
   id="svg2"
   xml:space="preserve"
   inkscape:version="0.48.4 r9939"
   sodipodi:docname="pedigree-ibd-recombination.svg"><sodipodi:namedview
     pagecolor="#ffffff"
     bordercolor="#666666"
     borderopacity="1"
     objecttolerance="10"
     gridtolerance="10"
     guidetolerance="10"
     inkscape:pageopacity="0"
     inkscape:pageshadow="2"
     inkscape:window-width="640"
     inkscape:window-height="480"
     id="namedview125"
     showgrid="false"
     inkscape:zoom="0.60781272"
     inkscape:cx="285.44977"
     inkscape:cy="120.8132"
     inkscape:window-x="0"
     inkscape:window-y="27"
     inkscape:window-maximized="0"
     inkscape:current-layer="svg2" /><metadata
     id="metadata8"><rdf:RDF><cc:Work
         rdf:about=""><dc:format>image/svg+xml</dc:format><dc:type
           rdf:resource="http://purl.org/dc/dcmitype/StillImage" /><dc:title></dc:title></cc:Work></rdf:RDF></metadata><defs
     id="defs6" /><g
     transform="matrix(1.25,0,0,-1.25,0,241.6264)"
     id="g10"><g
       id="g12"><g
         transform="matrix(1,0,0,-1,0,193.30112)"
         id="g14"><path
           d="m 304.062,152.652 0,-48.57"
           inkscape:connector-curvature="0"
           id="path16"
           style="fill:none;stroke:#000000;stroke-width:0.80000001;stroke-linecap:butt;stroke-linejoin:miter;stroke-miterlimit:4;stroke-opacity:1;stroke-dasharray:none" /></g><g
         transform="matrix(1,0,0,-1,0,193.30112)"
         id="g18"><path
           d="m 292.863,104.938 76.285,0"
           inkscape:connector-curvature="0"
           id="path20"
           style="fill:none;stroke:#000000;stroke-width:1;stroke-linecap:butt;stroke-linejoin:miter;stroke-miterlimit:4;stroke-opacity:1;stroke-dasharray:none" /></g><g
         transform="matrix(1,0,0,-1,0,193.30112)"
         id="g22"><path
           d="m 384.062,88.652 0,-64"
           inkscape:connector-curvature="0"
           id="path24"
           style="fill:none;stroke:#000000;stroke-width:0.80000001;stroke-linecap:butt;stroke-linejoin:miter;stroke-miterlimit:4;stroke-opacity:1;stroke-dasharray:none" /></g><g
         transform="matrix(1,0,0,-1,0,193.30112)"
         id="g26"><path
           d="m 300.578,104.652 c 0,12.782 -10.363,23.145 -23.144,23.145 -12.782,0 -23.141,-10.363 -23.141,-23.145 0,-12.781 10.359,-23.14 23.141,-23.14 12.781,0 23.144,10.359 23.144,23.14 z"
           inkscape:connector-curvature="0"
           id="path28"
           style="fill:#ffffff;fill-opacity:1;fill-rule:nonzero;stroke:#000000;stroke-width:3;stroke-linecap:butt;stroke-linejoin:miter;stroke-miterlimit:4;stroke-opacity:1;stroke-dasharray:none" /></g><g
         transform="matrix(1,0,0,-1,0,193.30112)"
         id="g30"><path
           d="m 361.719,81.512 46.285,0 0,46.285 -46.285,0 0,-46.285 z"
           inkscape:connector-curvature="0"
           id="path32"
           style="fill:#ffffff;fill-opacity:1;fill-rule:nonzero;stroke:#000000;stroke-width:3;stroke-linecap:butt;stroke-linejoin:miter;stroke-miterlimit:4;stroke-opacity:1;stroke-dasharray:none" /></g><g
         transform="matrix(1,0,0,-1,0,193.30112)"
         id="g34"><path
           d="m 212.07,24.938 44.285,0"
           inkscape:connector-curvature="0"
           id="path36"
           style="fill:none;stroke:#000000;stroke-width:1;stroke-linecap:butt;stroke-linejoin:miter;stroke-miterlimit:4;stroke-opacity:1;stroke-dasharray:none" /></g><g
         transform="matrix(1,0,0,-1,0,193.30112)"
         id="g38"><path
           d="m 248.93,1.512 46.285,0 0,46.285 -46.285,0 0,-46.285 z"
           inkscape:connector-curvature="0"
           id="path40"
           style="fill:#ffffff;fill-opacity:1;fill-rule:nonzero;stroke:#000000;stroke-width:3;stroke-linecap:butt;stroke-linejoin:miter;stroke-miterlimit:4;stroke-opacity:1;stroke-dasharray:none" /></g><g
         transform="matrix(1,0,0,-1,0,193.30112)"
         id="g42"><path
           d="m 372.07,24.938 44.285,0"
           inkscape:connector-curvature="0"
           id="path44"
           style="fill:none;stroke:#000000;stroke-width:1;stroke-linecap:butt;stroke-linejoin:miter;stroke-miterlimit:4;stroke-opacity:1;stroke-dasharray:none" /></g><g
         transform="matrix(1,0,0,-1,0,193.30112)"
         id="g46"><path
           d="m 379.785,24.652 c 0,12.782 -10.363,23.145 -23.144,23.145 -12.782,0 -23.141,-10.363 -23.141,-23.145 0,-12.781 10.359,-23.14 23.141,-23.14 12.781,0 23.144,10.359 23.144,23.14 z"
           inkscape:connector-curvature="0"
           id="path48"
           style="fill:#ffffff;fill-opacity:1;fill-rule:nonzero;stroke:#000000;stroke-width:3;stroke-linecap:butt;stroke-linejoin:miter;stroke-miterlimit:4;stroke-opacity:1;stroke-dasharray:none" /></g><g
         transform="matrix(1,0,0,-1,0,193.30112)"
         id="g50"><path
           d="m 408.926,1.512 46.289,0 0,46.285 -46.289,0 0,-46.285 z"
           inkscape:connector-curvature="0"
           id="path52"
           style="fill:#ffffff;fill-opacity:1;fill-rule:nonzero;stroke:#000000;stroke-width:3;stroke-linecap:butt;stroke-linejoin:miter;stroke-miterlimit:4;stroke-opacity:1;stroke-dasharray:none" /></g><g
         transform="matrix(1,0,0,-1,0,193.30112)"
         id="g54"><path
           d="m 60.062,88.082 0,-63.43"
           inkscape:connector-curvature="0"
           id="path56"
           style="fill:none;stroke:#000000;stroke-width:1;stroke-linecap:butt;stroke-linejoin:miter;stroke-miterlimit:4;stroke-opacity:1;stroke-dasharray:none" /></g><g
         transform="matrix(-1,0,0,-1,0,193.30112)"
         id="g58"><path
           d="m -172.918,24.652 c 0,12.782 -10.363,23.145 -23.144,23.145 -12.782,0 -23.145,-10.363 -23.145,-23.145 0,-12.781 10.363,-23.14 23.145,-23.14 12.781,0 23.144,10.359 23.144,23.14 z"
           inkscape:connector-curvature="0"
           id="path60"
           style="fill:#ffffff;fill-opacity:1;fill-rule:nonzero;stroke:#000000;stroke-width:3;stroke-linecap:butt;stroke-linejoin:miter;stroke-miterlimit:4;stroke-opacity:1;stroke-dasharray:none" /></g><g
         transform="matrix(1,0,0,-1,0,193.30112)"
         id="g62"><path
           d="m 76.52,104.938 89.429,0"
           inkscape:connector-curvature="0"
           id="path64"
           style="fill:none;stroke:#000000;stroke-width:1;stroke-linecap:butt;stroke-linejoin:miter;stroke-miterlimit:4;stroke-opacity:1;stroke-dasharray:none" /></g><g
         transform="matrix(1,0,0,-1,0,193.30112)"
         id="g66"><path
           d="m 84.578,104.652 c 0,12.782 -10.363,23.145 -23.144,23.145 -12.782,0 -23.141,-10.363 -23.141,-23.145 0,-12.781 10.359,-23.14 23.141,-23.14 12.781,0 23.144,10.359 23.144,23.14 z"
           inkscape:connector-curvature="0"
           id="path68"
           style="fill:#ffffff;fill-opacity:1;fill-rule:nonzero;stroke:#000000;stroke-width:3;stroke-linecap:butt;stroke-linejoin:miter;stroke-miterlimit:4;stroke-opacity:1;stroke-dasharray:none" /></g><g
         transform="matrix(1,0,0,-1,0,193.30112)"
         id="g70"><path
           d="m 148.062,152.652 0,-48.57"
           inkscape:connector-curvature="0"
           id="path72"
           style="fill:none;stroke:#000000;stroke-width:0.80000001;stroke-linecap:butt;stroke-linejoin:miter;stroke-miterlimit:4;stroke-opacity:1;stroke-dasharray:none" /></g><g
         transform="matrix(1,0,0,-1,0,193.30112)"
         id="g74"><path
           d="m 158.52,81.512 46.285,0 0,46.285 -46.285,0 0,-46.285 z"
           inkscape:connector-curvature="0"
           id="path76"
           style="fill:#ffffff;fill-opacity:1;fill-rule:nonzero;stroke:#000000;stroke-width:3;stroke-linecap:butt;stroke-linejoin:miter;stroke-miterlimit:4;stroke-opacity:1;stroke-dasharray:none" /></g><g
         transform="matrix(1,0,0,-1,0,193.30112)"
         id="g78"><path
           d="m 172.578,168.652 c 0,12.782 -10.363,23.145 -23.144,23.145 -12.782,0 -23.141,-10.363 -23.141,-23.145 0,-12.781 10.359,-23.14 23.141,-23.14 12.781,0 23.144,10.359 23.144,23.14 z"
           inkscape:connector-curvature="0"
           id="path80"
           style="fill:#ffffff;fill-opacity:1;fill-rule:nonzero;stroke:#000000;stroke-width:3;stroke-linecap:butt;stroke-linejoin:miter;stroke-miterlimit:4;stroke-opacity:1;stroke-dasharray:none" /></g><g
         transform="matrix(1,0,0,-1,0,193.30112)"
         id="g82"><path
           d="m 281.719,145.512 46.285,0 0,46.285 -46.285,0 0,-46.285 z"
           inkscape:connector-curvature="0"
           id="path84"
           style="fill:#ffffff;fill-opacity:1;fill-rule:nonzero;stroke:#000000;stroke-width:3;stroke-linecap:butt;stroke-linejoin:miter;stroke-miterlimit:4;stroke-opacity:1;stroke-dasharray:none" /></g><g
         transform="matrix(1,0,0,-1,0,193.30112)"
         id="g86"><path
           d="m 180.633,82.254 0,-12 97.715,0 0,12"
           inkscape:connector-curvature="0"
           id="path88"
           style="fill:none;stroke:#000000;stroke-width:1;stroke-linecap:butt;stroke-linejoin:miter;stroke-miterlimit:4;stroke-opacity:1;stroke-dasharray:none" /></g><g
         transform="matrix(1,0,0,-1,0,193.30112)"
         id="g90"><path
           d="m 230.348,24.652 0,45.993"
           inkscape:connector-curvature="0"
           id="path92"
           style="fill:none;stroke:#000000;stroke-width:1;stroke-linecap:butt;stroke-linejoin:miter;stroke-miterlimit:4;stroke-opacity:1;stroke-dasharray:none" /></g><g
         transform="matrix(1,0,0,-1,0,193.30112)"
         id="g94"><path
           d="m 84.633,24.938 -44.285,0"
           inkscape:connector-curvature="0"
           id="path96"
           style="fill:none;stroke:#000000;stroke-width:1;stroke-linecap:butt;stroke-linejoin:miter;stroke-miterlimit:4;stroke-opacity:1;stroke-dasharray:none" /></g><g
         transform="matrix(-1,0,0,-1,0,193.30112)"
         id="g98"><path
           d="m -76.918,24.652 c 0,12.782 -10.363,23.145 -23.144,23.145 -12.782,0 -23.145,-10.363 -23.145,-23.145 0,-12.781 10.363,-23.14 23.145,-23.14 12.781,0 23.144,10.359 23.144,23.14 z"
           inkscape:connector-curvature="0"
           id="path100"
           style="fill:#ffffff;fill-opacity:1;fill-rule:nonzero;stroke:#000000;stroke-width:3;stroke-linecap:butt;stroke-linejoin:miter;stroke-miterlimit:4;stroke-opacity:1;stroke-dasharray:none" /></g><g
         transform="matrix(-1,0,0,-1,0,193.30112)"
         id="g102"><path
           d="m -1.492,1.512 -46.285,0 0,46.285 46.285,0 0,-46.285 z"
           inkscape:connector-curvature="0"
           id="path104"
           style="fill:#ffffff;fill-opacity:1;fill-rule:nonzero;stroke:#000000;stroke-width:3;stroke-linecap:butt;stroke-linejoin:miter;stroke-miterlimit:4;stroke-opacity:1;stroke-dasharray:none" /></g><path
         d="m 264.234,105.004 10.285,0 0,-33 -10.285,0 0,33 z"
         inkscape:connector-curvature="0"
         id="path106"
         style="fill:#5c3566;fill-opacity:1;fill-rule:nonzero;stroke:none" /><path
         d="m 280.234,105.004 10.285,0 0,-33 -10.285,0 0,33 z"
         inkscape:connector-curvature="0"
         id="path108"
         style="fill:#cc0000;fill-opacity:1;fill-rule:nonzero;stroke:none" /><path
         d="m 371.148,105.004 10.285,0 0,-33 -10.285,0 0,33 z"
         inkscape:connector-curvature="0"
         id="path110"
         style="fill:#204a87;fill-opacity:1;fill-rule:nonzero;stroke:none" /><path
         d="m 387.148,105.004 10.285,0 0,-33 -10.285,0 0,33 z"
         inkscape:connector-curvature="0"
         id="path112"
         style="fill:#73d216;fill-opacity:1;fill-rule:nonzero;stroke:none" /><path
         d="m 258.355,185.004 10.285,0 0,-33 -10.285,0 0,33 z"
         inkscape:connector-curvature="0"
         id="path114"
         style="fill:#cc0000;fill-opacity:1;fill-rule:nonzero;stroke:none" /><path
         d="m 274.355,185.004 10.285,0 0,-33 -10.285,0 0,33 z"
         inkscape:connector-curvature="0"
         id="path116"
         style="fill:#ad7fa8;fill-opacity:1;fill-rule:nonzero;stroke:none" /><path
         d="m 343.441,185.004 10.285,0 0,-33 -10.285,0 0,33 z"
         inkscape:connector-curvature="0"
         id="path118"
         style="fill:#204a87;fill-opacity:1;fill-rule:nonzero;stroke:none" /><path
         d="m 359.441,185.004 10.285,0 0,-33 -10.285,0 0,33 z"
         inkscape:connector-curvature="0"
         id="path120"
         style="fill:#edd400;fill-opacity:1;fill-rule:nonzero;stroke:none" /><path
         d="m 418.355,185.004 10.285,0 0,-33 -10.285,0 0,33 z"
         inkscape:connector-curvature="0"
         id="path122"
         style="fill:#73d216;fill-opacity:1;fill-rule:nonzero;stroke:none" /><path
         d="m 435.957,185.004 10.285,0 0,-33 -10.285,0 0,33 z"
         inkscape:connector-curvature="0"
         id="path124"
         style="fill:#f57900;fill-opacity:1;fill-rule:nonzero;stroke:none" /><path
         d="m 198.977,185.004 10.285,0 0,-33 -10.285,0 0,33 z"
         inkscape:connector-curvature="0"
         id="path126"
         style="fill:#8f5902;fill-opacity:1;fill-rule:nonzero;stroke:none" /><path
         d="m 182.977,185.004 10.285,0 0,-33 -10.285,0 0,33 z"
         inkscape:connector-curvature="0"
         id="path128"
         style="fill:#5c3566;fill-opacity:1;fill-rule:nonzero;stroke:none" /><path
         d="m 48.234,105.004 10.285,0 0,-33 -10.285,0 0,33 z"
         inkscape:connector-curvature="0"
         id="path130"
         style="fill:#4e9a06;fill-opacity:1;fill-rule:nonzero;stroke:none" /><path
         d="m 64.234,105.004 10.285,0 0,-33 -10.285,0 0,33 z"
         inkscape:connector-curvature="0"
         id="path132"
         style="fill:#ce5c00;fill-opacity:1;fill-rule:nonzero;stroke:none" /><path
         d="m 167.117,105.004 10.285,0 0,-33 -10.285,0 0,33 z"
         inkscape:connector-curvature="0"
         id="path134"
         style="fill:#5c3566;fill-opacity:1;fill-rule:nonzero;stroke:none" /><path
         d="m 184.719,105.004 10.285,0 0,-33 -10.285,0 0,33 z"
         inkscape:connector-curvature="0"
         id="path136"
         style="fill:#cc0000;fill-opacity:1;fill-rule:nonzero;stroke:none" /><path
         d="m 137.832,41.004 10.289,0 0,-33 -10.289,0 0,33 z"
         inkscape:connector-curvature="0"
         id="path138"
         style="fill:#4e9a06;fill-opacity:1;fill-rule:nonzero;stroke:none" /><path
         d="m 137.832,24.582 10.289,0 0,-16.945 -10.289,0 0,16.945 z"
         inkscape:connector-curvature="0"
         id="path140"
         style="fill:#c4a000;fill-opacity:1;fill-rule:nonzero;stroke:none" /><path
         d="m 137.832,40.864 10.289,0 0,-11.957 -10.289,0 0,11.957 z"
         inkscape:connector-curvature="0"
         id="path142"
         style="fill:#ce5c00;fill-opacity:1;fill-rule:nonzero;stroke:none" /><path
         d="m 152.234,35.973 10.285,0 0,-28.5 -10.285,0 0,28.5 z"
         inkscape:connector-curvature="0"
         id="path144"
         style="fill:#cc0000;fill-opacity:1;fill-rule:nonzero;stroke:none" /><path
         d="m 289.316,41.914 10.285,0 0,-22.141 -10.285,0 0,22.141 z"
         inkscape:connector-curvature="0"
         id="path146"
         style="fill:#cc0000;fill-opacity:1;fill-rule:nonzero;stroke:none" /><path
         d="m 289.324,21.575 10.285,0 0,-13.445 -10.285,0 0,13.445 z"
         inkscape:connector-curvature="0"
         id="path148"
         style="fill:#ad7fa8;fill-opacity:1;fill-rule:nonzero;stroke:none" /><path
         d="m 48.234,88.582 10.285,0 0,-16.012 -10.285,0 0,16.012 z"
         inkscape:connector-curvature="0"
         id="path150"
         style="fill:#c4a000;fill-opacity:1;fill-rule:nonzero;stroke:none" /><path
         d="m 280.32,86.957 10.285,0 0,-14.77 -10.285,0 0,14.77 z"
         inkscape:connector-curvature="0"
         id="path152"
         style="fill:#ad7fa8;fill-opacity:1;fill-rule:nonzero;stroke:none" /><path
         d="m 264.234,105.332 10.285,0 0,-10.492 -10.285,0 0,10.492 z"
         inkscape:connector-curvature="0"
         id="path154"
         style="fill:#8f5902;fill-opacity:1;fill-rule:nonzero;stroke:none" /><path
         d="m 167.117,88.75 10.285,0 0,-16.762 -10.285,0 0,16.762 z"
         inkscape:connector-curvature="0"
         id="path156"
         style="fill:#8f5902;fill-opacity:1;fill-rule:nonzero;stroke:none" /><path
         d="m 387.148,105.051 10.285,0 0,-23.758 -10.285,0 0,23.758 z"
         inkscape:connector-curvature="0"
         id="path158"
         style="fill:#f57900;fill-opacity:1;fill-rule:nonzero;stroke:none" /><path
         d="m 371.148,105.524 10.285,0 0,-13.004 -10.285,0 0,13.004 z"
         inkscape:connector-curvature="0"
         id="path160"
         style="fill:#edd400;fill-opacity:1;fill-rule:nonzero;stroke:none" /><path
         d="m 152.234,40.938 10.285,0 0,-10.484 -10.285,0 0,10.484 z"
         inkscape:connector-curvature="0"
         id="path162"
         style="fill:#5c3566;fill-opacity:1;fill-rule:nonzero;stroke:none" /><path
         d="m 307.148,41.004 10.285,0 0,-33 -10.285,0 0,33 z"
         inkscape:connector-curvature="0"
         id="path164"
         style="fill:#204a87;fill-opacity:1;fill-rule:nonzero;stroke:none" /><path
         d="m 307.148,41.524 10.285,0 0,-13.004 -10.285,0 0,13.004 z"
         inkscape:connector-curvature="0"
         id="path166"
         style="fill:#edd400;fill-opacity:1;fill-rule:nonzero;stroke:none" /><path
         d="m 307.203,16.903 10.285,0 0,-9.07 -10.285,0 0,9.07 z"
         inkscape:connector-curvature="0"
         id="path168"
         style="fill:#73d216;fill-opacity:1;fill-rule:nonzero;stroke:none" /><path
         d="m 264.234,105.004 10.285,0 0,-33 -10.285,0 0,33 z"
         inkscape:connector-curvature="0"
         id="path170"
         style="fill:#5c3566;fill-opacity:1;fill-rule:nonzero;stroke:none" /><path
         d="m 280.234,105.004 10.285,0 0,-33 -10.285,0 0,33 z"
         inkscape:connector-curvature="0"
         id="path172"
         style="fill:#cc0000;fill-opacity:1;fill-rule:nonzero;stroke:none" /><path
         d="m 371.148,105.004 10.285,0 0,-33 -10.285,0 0,33 z"
         inkscape:connector-curvature="0"
         id="path174"
         style="fill:#204a87;fill-opacity:1;fill-rule:nonzero;stroke:none" /><path
         d="m 387.148,105.004 10.285,0 0,-33 -10.285,0 0,33 z"
         inkscape:connector-curvature="0"
         id="path176"
         style="fill:#73d216;fill-opacity:1;fill-rule:nonzero;stroke:none" /><path
         d="m 258.355,185.004 10.285,0 0,-33 -10.285,0 0,33 z"
         inkscape:connector-curvature="0"
         id="path178"
         style="fill:#cc0000;fill-opacity:1;fill-rule:nonzero;stroke:none" /><path
         d="m 274.355,185.004 10.285,0 0,-33 -10.285,0 0,33 z"
         inkscape:connector-curvature="0"
         id="path180"
         style="fill:#ad7fa8;fill-opacity:1;fill-rule:nonzero;stroke:none" /><path
         d="m 343.441,185.004 10.285,0 0,-33 -10.285,0 0,33 z"
         inkscape:connector-curvature="0"
         id="path182"
         style="fill:#204a87;fill-opacity:1;fill-rule:nonzero;stroke:none" /><path
         d="m 359.441,185.004 10.285,0 0,-33 -10.285,0 0,33 z"
         inkscape:connector-curvature="0"
         id="path184"
         style="fill:#edd400;fill-opacity:1;fill-rule:nonzero;stroke:none" /><path
         d="m 418.355,185.004 10.285,0 0,-33 -10.285,0 0,33 z"
         inkscape:connector-curvature="0"
         id="path186"
         style="fill:#73d216;fill-opacity:1;fill-rule:nonzero;stroke:none" /><path
         d="m 435.957,185.004 10.285,0 0,-33 -10.285,0 0,33 z"
         inkscape:connector-curvature="0"
         id="path188"
         style="fill:#f57900;fill-opacity:1;fill-rule:nonzero;stroke:none" /><path
         d="m 198.977,185.004 10.285,0 0,-33 -10.285,0 0,33 z"
         inkscape:connector-curvature="0"
         id="path190"
         style="fill:#8f5902;fill-opacity:1;fill-rule:nonzero;stroke:none" /><path
         d="m 182.977,185.004 10.285,0 0,-33 -10.285,0 0,33 z"
         inkscape:connector-curvature="0"
         id="path192"
         style="fill:#5c3566;fill-opacity:1;fill-rule:nonzero;stroke:none" /><path
         d="m 48.234,105.004 10.285,0 0,-33 -10.285,0 0,33 z"
         inkscape:connector-curvature="0"
         id="path194"
         style="fill:#4e9a06;fill-opacity:1;fill-rule:nonzero;stroke:none" /><path
         d="m 64.234,105.004 10.285,0 0,-33 -10.285,0 0,33 z"
         inkscape:connector-curvature="0"
         id="path196"
         style="fill:#ce5c00;fill-opacity:1;fill-rule:nonzero;stroke:none" /><path
         d="m 167.117,105.004 10.285,0 0,-33 -10.285,0 0,33 z"
         inkscape:connector-curvature="0"
         id="path198"
         style="fill:#5c3566;fill-opacity:1;fill-rule:nonzero;stroke:none" /><path
         d="m 184.719,105.004 10.285,0 0,-33 -10.285,0 0,33 z"
         inkscape:connector-curvature="0"
         id="path200"
         style="fill:#cc0000;fill-opacity:1;fill-rule:nonzero;stroke:none" /><path
         d="m 137.832,41.004 10.289,0 0,-33 -10.289,0 0,33 z"
         inkscape:connector-curvature="0"
         id="path202"
         style="fill:#4e9a06;fill-opacity:1;fill-rule:nonzero;stroke:none" /><path
         d="m 137.832,24.582 10.289,0 0,-16.945 -10.289,0 0,16.945 z"
         inkscape:connector-curvature="0"
         id="path204"
         style="fill:#c4a000;fill-opacity:1;fill-rule:nonzero;stroke:none" /><path
         d="m 137.832,40.864 10.289,0 0,-11.957 -10.289,0 0,11.957 z"
         inkscape:connector-curvature="0"
         id="path206"
         style="fill:#ce5c00;fill-opacity:1;fill-rule:nonzero;stroke:none" /><path
         d="m 152.234,35.973 10.285,0 0,-28.5 -10.285,0 0,28.5 z"
         inkscape:connector-curvature="0"
         id="path208"
         style="fill:#cc0000;fill-opacity:1;fill-rule:nonzero;stroke:none" /><path
         d="m 289.316,41.914 10.285,0 0,-22.141 -10.285,0 0,22.141 z"
         inkscape:connector-curvature="0"
         id="path210"
         style="fill:#cc0000;fill-opacity:1;fill-rule:nonzero;stroke:none" /><path
         d="m 289.324,21.575 10.285,0 0,-13.445 -10.285,0 0,13.445 z"
         inkscape:connector-curvature="0"
         id="path212"
         style="fill:#ad7fa8;fill-opacity:1;fill-rule:nonzero;stroke:none" /><path
         d="m 48.234,88.582 10.285,0 0,-16.012 -10.285,0 0,16.012 z"
         inkscape:connector-curvature="0"
         id="path214"
         style="fill:#c4a000;fill-opacity:1;fill-rule:nonzero;stroke:none" /><path
         d="m 280.32,86.957 10.285,0 0,-14.77 -10.285,0 0,14.77 z"
         inkscape:connector-curvature="0"
         id="path216"
         style="fill:#ad7fa8;fill-opacity:1;fill-rule:nonzero;stroke:none" /><path
         d="m 264.234,105.332 10.285,0 0,-10.492 -10.285,0 0,10.492 z"
         inkscape:connector-curvature="0"
         id="path218"
         style="fill:#8f5902;fill-opacity:1;fill-rule:nonzero;stroke:none" /><path
         d="m 167.117,88.75 10.285,0 0,-16.762 -10.285,0 0,16.762 z"
         inkscape:connector-curvature="0"
         id="path220"
         style="fill:#8f5902;fill-opacity:1;fill-rule:nonzero;stroke:none" /><path
         d="m 387.148,105.051 10.285,0 0,-23.758 -10.285,0 0,23.758 z"
         inkscape:connector-curvature="0"
         id="path222"
         style="fill:#f57900;fill-opacity:1;fill-rule:nonzero;stroke:none" /><path
         d="m 371.148,105.524 10.285,0 0,-13.004 -10.285,0 0,13.004 z"
         inkscape:connector-curvature="0"
         id="path224"
         style="fill:#edd400;fill-opacity:1;fill-rule:nonzero;stroke:none" /><path
         d="m 152.234,40.938 10.285,0 0,-10.484 -10.285,0 0,10.484 z"
         inkscape:connector-curvature="0"
         id="path226"
         style="fill:#5c3566;fill-opacity:1;fill-rule:nonzero;stroke:none" /><path
         d="m 307.148,41.004 10.285,0 0,-33 -10.285,0 0,33 z"
         inkscape:connector-curvature="0"
         id="path228"
         style="fill:#204a87;fill-opacity:1;fill-rule:nonzero;stroke:none" /><path
         d="m 307.148,41.524 10.285,0 0,-13.004 -10.285,0 0,13.004 z"
         inkscape:connector-curvature="0"
         id="path230"
         style="fill:#edd400;fill-opacity:1;fill-rule:nonzero;stroke:none" /><path
         d="m 307.203,16.903 10.285,0 0,-9.07 -10.285,0 0,9.07 z"
         inkscape:connector-curvature="0"
         id="path232"
         style="fill:#73d216;fill-opacity:1;fill-rule:nonzero;stroke:none" /><path
         d="m 102.977,185.004 10.285,0 0,-33 -10.285,0 0,33 z"
         inkscape:connector-curvature="0"
         id="path234"
         style="fill:#c4a000;fill-opacity:1;fill-rule:nonzero;stroke:none" /><path
         d="m 86.977,185.004 10.285,0 0,-33 -10.285,0 0,33 z"
         inkscape:connector-curvature="0"
         id="path236"
         style="fill:#4e9a06;fill-opacity:1;fill-rule:nonzero;stroke:none" /><path
         d="m 28.062,185.004 10.285,0 0,-33 -10.285,0 0,33 z"
         inkscape:connector-curvature="0"
         id="path238"
         style="fill:#ce5c00;fill-opacity:1;fill-rule:nonzero;stroke:none" /><path
         d="m 12.062,185.004 10.285,0 0,-33 -10.285,0 0,33 z"
         inkscape:connector-curvature="0"
         id="path240"
         style="fill:#888a85;fill-opacity:1;fill-rule:nonzero;stroke:none" /><path
         d="m 102.977,185.004 10.285,0 0,-33 -10.285,0 0,33 z"
         inkscape:connector-curvature="0"
         id="path242"
         style="fill:#c4a000;fill-opacity:1;fill-rule:nonzero;stroke:none" /><path
         d="m 86.977,185.004 10.285,0 0,-33 -10.285,0 0,33 z"
         inkscape:connector-curvature="0"
         id="path244"
         style="fill:#4e9a06;fill-opacity:1;fill-rule:nonzero;stroke:none" /><path
         d="m 28.062,185.004 10.285,0 0,-33 -10.285,0 0,33 z"
         inkscape:connector-curvature="0"
         id="path246"
         style="fill:#ce5c00;fill-opacity:1;fill-rule:nonzero;stroke:none" /><path
         d="m 12.062,185.004 10.285,0 0,-33 -10.285,0 0,33 z"
         inkscape:connector-curvature="0"
         id="path248"
         style="fill:#888a85;fill-opacity:1;fill-rule:nonzero;stroke:none" /></g></g></svg>